<?xml version="1.0" encoding="iso-8859-1"?>
<!-- Generator: Adobe Illustrator 19.0.0, SVG Export Plug-In . SVG Version: 6.00 Build 0)  -->
<svg version="1.1" id="Capa_1" xmlns="http://www.w3.org/2000/svg" xmlns:xlink="http://www.w3.org/1999/xlink" x="0px" y="0px"
	 viewBox="0 0 512.1 512.1" style="enable-background:new 0 0 512.1 512.1;" xml:space="preserve">
<g>
	<g>
		<g>
			<path d="M299.467,434.86c11.361-2.748,22.431-6.585,33.056-11.456l-13.312-29.088c-8.77,4.012-17.906,7.173-27.28,9.44
				L299.467,434.86z"/>
			<path d="M92.491,171.66c-5.368,10.397-9.73,21.284-13.024,32.512l30.72,8.992c2.711-9.259,6.312-18.234,10.752-26.8
				L92.491,171.66z"/>
			<path d="M440.075,256.012h-32c0.005,9.664-0.906,19.307-2.72,28.8l31.44,6.016C438.979,279.352,440.078,267.695,440.075,256.012z
				"/>
			<path d="M366.075,360.924l23.152,22.08c8.059-8.461,15.307-17.658,21.648-27.472l-26.912-17.344
				C378.729,346.313,372.74,353.926,366.075,360.924z"/>
			<path d="M229.899,438.172l4.512-31.696c-9.56-1.36-18.969-3.632-28.096-6.784l-10.448,30.256
				C206.927,433.753,218.322,436.507,229.899,438.172z"/>
			<path d="M263.339,104.252l1.504-32.032c-11.667-0.537-23.359-0.002-34.928,1.6l4.496,31.792
				C243.99,104.258,253.675,103.803,263.339,104.252z"/>
			<path d="M362.843,106.14c-9.518-6.787-19.659-12.653-30.288-17.52l-13.312,29.088c8.787,4.029,17.171,8.882,25.04,14.496
				L362.843,106.14z"/>
			<path d="M135.579,395.052l20.96-24.16c-7.3-6.327-13.98-13.335-19.952-20.928l-25.152,19.76
				C118.657,378.917,126.742,387.399,135.579,395.052z"/>
			<path d="M72.907,273.5c1.103,11.627,3.305,23.124,6.576,34.336l30.72-8.976c-2.708-9.29-4.534-18.815-5.456-28.448L72.907,273.5z
				"/>
			<path d="M180.091,124.348l-16-27.712c-10.119,5.859-19.66,12.662-28.496,20.32l20.96,24.16
				C163.845,134.786,171.727,129.171,180.091,124.348z"/>
			<path d="M368.075,256.012c0-61.856-50.144-112-112-112s-112,50.144-112,112s50.144,112,112,112
				C317.902,367.942,368.004,317.839,368.075,256.012z M334.475,272.012c-8.837,43.29-51.094,71.22-94.384,62.384
				c-43.29-8.837-71.22-51.094-62.384-94.384c8.837-43.29,51.094-71.22,94.384-62.384c31.418,6.413,55.971,30.966,62.384,62.384
				h-78.4v32H334.475z"/>
			<path d="M512.075,64.012h-112v112h32v-58.08c31.164,39.269,48.085,87.948,48,138.08
				c0.052,123.765-100.237,224.138-224.002,224.19S31.935,379.966,31.883,256.201S132.12,32.063,255.884,32.011
				c36.968-0.016,73.366,9.115,105.95,26.578l15.168-28.176C252.387-36.374,97.224,10.506,30.437,135.122
				s-19.906,279.779,104.71,346.566s279.779,19.906,346.566-104.71c19.938-37.202,30.368-78.757,30.362-120.966
				c0.117-58.247-19.847-114.754-56.528-160h56.528V64.012z"/>
		</g>
	</g>
</g>
<g>
</g>
<g>
</g>
<g>
</g>
<g>
</g>
<g>
</g>
<g>
</g>
<g>
</g>
<g>
</g>
<g>
</g>
<g>
</g>
<g>
</g>
<g>
</g>
<g>
</g>
<g>
</g>
<g>
</g>
</svg>
